# Blender 3.6.2
# www.blender.org
o Hexagon
v 0.859963 0.019021 -0.503500
v 0.866025 0.019021 -0.493000
v 0.866025 -0.019021 -0.493000
v 0.859963 -0.019021 -0.503500
v -0.859963 -0.019021 -0.503500
v -0.866025 -0.019021 -0.493000
v -0.866025 0.019021 -0.493000
v -0.859963 0.019021 -0.503500
v -0.859963 0.019021 0.503500
v -0.866025 0.019021 0.493000
v -0.866025 -0.019021 0.493000
v -0.859963 -0.019021 0.503500
v -0.006062 0.019021 -0.996500
v 0.006062 0.019021 -0.996500
v 0.006062 -0.019021 -0.996500
v -0.006062 -0.019021 -0.996500
v -0.006062 -0.019021 0.996500
v 0.006062 -0.019021 0.996500
v 0.006062 0.019021 0.996500
v -0.006062 0.019021 0.996500
v 0.866025 0.019021 0.493000
v 0.859963 0.019021 0.503500
v 0.859963 -0.019021 0.503500
v 0.866025 -0.019021 0.493000
v -0.000000 0.150000 -0.922635
v 0.006548 0.145050 -0.932653
v -0.006548 0.145050 -0.932653
v 0.006548 0.094950 -0.990504
v 0.006062 0.083000 -0.996500
v -0.006062 0.083000 -0.996500
v -0.006548 0.094950 -0.990504
v -0.861076 0.094950 -0.489581
v -0.854528 0.094950 -0.500923
v -0.859963 0.083000 -0.503500
v -0.866025 0.083000 -0.493000
v -0.810975 0.145050 -0.460656
v -0.799025 0.150000 -0.461318
v -0.804427 0.145050 -0.471997
v -0.854528 0.094950 0.500923
v -0.861076 0.094950 0.489581
v -0.866025 0.083000 0.493000
v -0.859963 0.083000 0.503500
v -0.804427 0.145050 0.471997
v -0.799025 0.150000 0.461318
v -0.810975 0.145050 0.460656
v 0.006548 0.094950 0.990504
v -0.006548 0.094950 0.990504
v -0.006062 0.083000 0.996500
v 0.006062 0.083000 0.996500
v 0.006548 0.145050 0.932653
v 0.000000 0.150000 0.922635
v -0.006548 0.145050 0.932653
v 0.861076 0.094950 0.489581
v 0.854528 0.094950 0.500923
v 0.859963 0.083000 0.503500
v 0.866025 0.083000 0.493000
v 0.810975 0.145050 0.460656
v 0.799025 0.150000 0.461318
v 0.804427 0.145050 0.471997
v 0.854528 0.094950 -0.500923
v 0.861076 0.094950 -0.489581
v 0.866025 0.083000 -0.493000
v 0.859963 0.083000 -0.503500
v 0.804427 0.145050 -0.471997
v 0.799025 0.150000 -0.461318
v 0.810975 0.145050 -0.460656
v -0.006062 -0.083000 -0.996500
v 0.006062 -0.083000 -0.996500
v 0.006548 -0.094950 -0.990504
v -0.006548 -0.094950 -0.990504
v 0.006548 -0.145050 -0.932653
v 0.000000 -0.150000 -0.922635
v -0.006548 -0.145050 -0.932653
v -0.810975 -0.145050 -0.460656
v -0.804427 -0.145050 -0.471997
v -0.799025 -0.150000 -0.461318
v -0.861076 -0.094950 -0.489581
v -0.866025 -0.083000 -0.493000
v -0.859963 -0.083000 -0.503500
v -0.854528 -0.094950 -0.500923
v -0.804427 -0.145050 0.471997
v -0.810975 -0.145050 0.460656
v -0.799025 -0.150000 0.461318
v -0.854528 -0.094950 0.500923
v -0.859963 -0.083000 0.503500
v -0.866025 -0.083000 0.493000
v -0.861076 -0.094950 0.489581
v 0.006548 -0.145050 0.932653
v -0.006548 -0.145050 0.932653
v -0.000000 -0.150000 0.922635
v 0.006548 -0.094950 0.990504
v 0.006062 -0.083000 0.996500
v -0.006062 -0.083000 0.996500
v -0.006548 -0.094950 0.990504
v 0.810975 -0.145050 0.460656
v 0.804427 -0.145050 0.471997
v 0.799025 -0.150000 0.461318
v 0.861076 -0.094950 0.489581
v 0.866025 -0.083000 0.493000
v 0.859963 -0.083000 0.503500
v 0.854528 -0.094950 0.500923
v 0.804427 -0.145050 -0.471997
v 0.810975 -0.145050 -0.460656
v 0.799025 -0.150000 -0.461318
v 0.854528 -0.094950 -0.500923
v 0.859963 -0.083000 -0.503500
v 0.866025 -0.083000 -0.493000
v 0.861076 -0.094950 -0.489581
vn 0.6979 0.2136 -0.6836
vn 0.7071 -0.0000 -0.7071
vn 0.2588 -0.0000 -0.9659
vn 0.2431 0.2136 -0.9462
vn -0.9659 -0.0000 0.2588
vn -0.9659 -0.0000 -0.2588
vn -0.9410 -0.2136 -0.2626
vn -0.9410 -0.2136 0.2626
vn -0.6979 0.2136 0.6836
vn -0.7071 -0.0000 0.7071
vn -0.2588 -0.0000 0.9659
vn -0.2431 0.2136 0.9462
vn 0.2588 -0.0000 0.9659
vn 0.7071 -0.0000 0.7071
vn 0.2431 -0.2136 0.9462
vn 0.6979 -0.2136 0.6836
vn 0.9659 -0.0000 0.2588
vn 0.9410 -0.2136 0.2626
vn 0.9410 -0.2136 -0.2626
vn 0.9659 -0.0000 -0.2588
vn -0.7864 -0.5827 0.2049
vn -0.7864 -0.5827 -0.2049
vn -0.5458 -0.8288 -0.1233
vn -0.5458 -0.8288 0.1233
vn 0.9410 0.2136 0.2626
vn 0.9410 0.2136 -0.2626
vn -0.9410 0.2136 0.2626
vn -0.9410 0.2136 -0.2626
vn 0.6979 0.2136 0.6836
vn 0.2431 0.2136 0.9462
vn -0.2119 0.9696 -0.1223
vn -0.2119 0.9696 0.1223
vn -0.0000 0.9696 0.2447
vn 0.2119 0.9696 0.1223
vn 0.2119 0.9696 -0.1223
vn -0.0000 0.9696 -0.2447
vn -0.2431 0.2136 -0.9462
vn -0.2588 -0.0000 -0.9659
vn -0.7071 -0.0000 -0.7071
vn -0.6979 0.2136 -0.6836
vn -0.6979 -0.2136 0.6836
vn -0.2431 -0.2136 0.9462
vn 0.6979 -0.2136 -0.6836
vn 0.2431 -0.2136 -0.9462
vn -0.2431 -0.2136 -0.9462
vn -0.6979 -0.2136 -0.6836
vn 0.1661 0.8288 -0.5344
vn 0.3797 0.8288 -0.4110
vn 0.5707 0.5827 -0.5786
vn 0.2157 0.5827 -0.7835
vn -0.1661 0.8288 0.5344
vn -0.3797 0.8288 0.4110
vn -0.5707 0.5827 0.5786
vn -0.2157 0.5827 0.7835
vn 0.3797 0.8288 0.4110
vn 0.1661 0.8288 0.5344
vn 0.2157 0.5827 0.7835
vn 0.5707 0.5827 0.5786
vn 0.5458 0.8288 -0.1233
vn 0.5458 0.8288 0.1233
vn 0.7864 0.5827 0.2049
vn 0.7864 0.5827 -0.2049
vn -0.5707 -0.5827 -0.5786
vn -0.2157 -0.5827 -0.7835
vn -0.1661 -0.8288 -0.5344
vn -0.3797 -0.8288 -0.4110
vn -0.5458 0.8288 0.1233
vn -0.5458 0.8288 -0.1233
vn -0.7864 0.5827 -0.2049
vn -0.7864 0.5827 0.2049
vn 0.2157 -0.5827 -0.7835
vn 0.5707 -0.5827 -0.5786
vn 0.3797 -0.8288 -0.4110
vn 0.1661 -0.8288 -0.5344
vn -0.2157 -0.5827 0.7835
vn -0.5707 -0.5827 0.5786
vn -0.3797 -0.8288 0.4110
vn -0.1661 -0.8288 0.5344
vn 0.5707 -0.5827 0.5786
vn 0.2157 -0.5827 0.7835
vn 0.1661 -0.8288 0.5344
vn 0.3797 -0.8288 0.4110
vn 0.7864 -0.5827 -0.2049
vn 0.7864 -0.5827 0.2049
vn 0.5458 -0.8288 0.1233
vn 0.5458 -0.8288 -0.1233
vn -0.2119 -0.9696 -0.1223
vn -0.0000 -0.9696 -0.2447
vn 0.2119 -0.9696 -0.1223
vn 0.2119 -0.9696 0.1223
vn -0.0000 -0.9696 0.2447
vn -0.2119 -0.9696 0.1223
vn -0.3797 0.8288 -0.4110
vn -0.1661 0.8288 -0.5344
vn -0.2157 0.5827 -0.7835
vn -0.5707 0.5827 -0.5786
vt 0.965981 0.833073
vt 0.984469 0.844392
vt 0.732711 0.988283
vt 0.732726 0.966740
vt 0.046673 0.160293
vt 0.295991 0.012687
vt 0.296368 0.034979
vt 0.064837 0.170989
vt 0.496127 0.558990
vt 0.477150 0.547759
vt 0.727776 0.401775
vt 0.728089 0.422965
vt 0.013150 0.966125
vt 0.013149 0.809194
vt 0.019204 0.809194
vt 0.019204 0.966125
vt 0.019204 0.173752
vt 0.019204 0.330683
vt 0.013149 0.330683
vt 0.013149 0.173752
vt 0.065919 0.446449
vt 0.299542 0.578788
vt 0.299357 0.599752
vt 0.046912 0.457874
vt 0.303768 0.599765
vt 0.303465 0.578740
vt 0.534760 0.445488
vt 0.553120 0.456751
vt 0.068268 0.173135
vt 0.296584 0.039051
vt 0.296678 0.060759
vt 0.087060 0.183650
vt 0.967442 0.560068
vt 0.986806 0.549259
vt 0.986806 0.840473
vt 0.967981 0.829609
vt 0.494168 0.562495
vt 0.494949 0.830393
vt 0.476632 0.840688
vt 0.474819 0.551774
vt 0.732229 0.401793
vt 0.984499 0.545201
vt 0.965415 0.556578
vt 0.732045 0.422940
vt 0.520462 0.817649
vt 0.520059 0.574888
vt 0.730323 0.451592
vt 0.941649 0.572913
vt 0.942082 0.817026
vt 0.730641 0.938173
vt 0.019204 0.171822
vt 0.013149 0.171822
vt 0.013149 0.014892
vt 0.019204 0.014892
vt 0.728757 0.966714
vt 0.728189 0.988213
vt 0.478818 0.844532
vt 0.496922 0.833793
vt 0.019204 0.648404
vt 0.013149 0.648404
vt 0.013149 0.491473
vt 0.019204 0.491473
vt 0.019204 0.489543
vt 0.013149 0.489543
vt 0.013149 0.332613
vt 0.019204 0.332613
vt 0.044440 0.164126
vt 0.062883 0.174413
vt 0.063879 0.442975
vt 0.044595 0.453830
vt 0.555448 0.452863
vt 0.536775 0.442061
vt 0.536416 0.173481
vt 0.555448 0.163129
vt 0.553227 0.159150
vt 0.534436 0.170009
vt 0.300415 0.034921
vt 0.300673 0.012701
vt 0.732452 0.941148
vt 0.943760 0.820091
vt 0.962480 0.830885
vt 0.732596 0.962631
vt 0.728492 0.448622
vt 0.518366 0.571835
vt 0.499646 0.561157
vt 0.728243 0.427072
vt 0.943326 0.569844
vt 0.732109 0.448585
vt 0.731900 0.426992
vt 0.961914 0.558781
vt 0.945580 0.816958
vt 0.945149 0.572976
vt 0.963818 0.561958
vt 0.964371 0.827726
vt 0.300292 0.039077
vt 0.530923 0.172194
vt 0.512284 0.183147
vt 0.300307 0.060735
vt 0.516569 0.574968
vt 0.516987 0.817589
vt 0.498520 0.828513
vt 0.497777 0.564333
vt 0.532815 0.175353
vt 0.533151 0.440119
vt 0.514447 0.429587
vt 0.514114 0.186277
vt 0.067484 0.441077
vt 0.066502 0.176331
vt 0.085276 0.186785
vt 0.086110 0.430076
vt 0.299642 0.574701
vt 0.069404 0.444232
vt 0.087954 0.433189
vt 0.299617 0.553296
vt 0.531359 0.443310
vt 0.303278 0.574726
vt 0.303212 0.553274
vt 0.512649 0.432706
vt 0.298503 0.063740
vt 0.510609 0.186222
vt 0.510969 0.429663
vt 0.301405 0.550306
vt 0.089607 0.430118
vt 0.088762 0.186695
vt 0.518795 0.820696
vt 0.728848 0.941165
vt 0.728937 0.962685
vt 0.500388 0.831635
vt 0.013149 0.012962
vt 0.019204 0.012962
vt 0.013149 0.807264
vt 0.019204 0.807264
vt 0.019204 0.650333
vt 0.013149 0.650333
s 1
f 63/1/1 1/2/2 14/3/3 29/4/4
f 11/5/5 6/6/6 78/7/7 86/8/8
f 42/9/9 9/10/10 20/11/11 48/12/12
f 18/13/13 23/14/14 22/15/14 19/16/13
f 10/17/5 7/18/6 6/19/6 11/20/5
f 92/21/15 100/22/16 23/23/14 18/24/13
f 24/25/17 99/26/18 107/27/19 3/28/20
f 87/29/21 77/30/22 74/31/23 82/32/24
f 56/33/25 21/34/17 2/35/20 62/36/26
f 41/37/27 35/38/28 7/39/6 10/40/5
f 19/41/13 22/42/14 55/43/29 49/44/30
f 37/45/31 44/46/32 51/47/33 58/48/34 65/49/35 25/50/36
f 9/51/10 12/52/10 17/53/11 20/54/11
f 30/55/37 13/56/38 8/57/39 34/58/40
f 1/59/2 4/60/2 15/61/3 14/62/3
f 13/63/38 16/64/38 5/65/39 8/66/39
f 12/67/10 85/68/41 93/69/42 17/70/11
f 4/71/2 106/72/43 68/73/44 15/74/3
f 16/75/38 67/76/45 79/77/46 5/78/39
f 26/79/47 64/80/48 60/81/49 28/82/50
f 52/83/51 43/84/52 39/85/53 47/86/54
f 59/87/55 50/88/56 46/89/57 54/90/58
f 66/91/59 57/92/60 53/93/61 61/94/62
f 80/95/63 70/96/64 73/97/65 75/98/66
f 45/99/67 36/100/68 32/101/69 40/102/70
f 69/103/71 105/104/72 102/105/73 71/106/74
f 94/107/75 84/108/76 81/109/77 89/110/78
f 101/111/79 91/112/80 88/113/81 96/114/82
f 108/115/83 98/116/84 95/117/85 103/118/86
f 76/119/87 72/120/88 104/121/89 97/122/90 90/123/91 83/124/92
f 38/125/93 27/126/94 31/127/95 33/128/96
f 25/50/36 26/79/47 27/126/94
f 28/82/50 29/4/4 30/55/37 31/127/95
f 32/101/69 33/128/96 34/58/40 35/38/28
f 36/100/68 37/45/31 38/125/93
f 39/85/53 40/102/70 41/37/27 42/9/9
f 43/84/52 44/46/32 45/99/67
f 46/89/57 47/86/54 48/12/12 49/44/30
f 50/88/56 51/47/33 52/83/51
f 53/93/61 54/90/58 55/43/29 56/33/25
f 57/92/60 58/48/34 59/87/55
f 60/81/49 61/94/62 62/36/26 63/1/1
f 64/80/48 65/49/35 66/91/59
f 67/76/45 68/73/44 69/103/71 70/96/64
f 71/106/74 72/120/88 73/97/65
f 74/31/23 75/98/66 76/119/87
f 77/30/22 78/7/7 79/77/46 80/95/63
f 81/109/77 82/32/24 83/124/92
f 84/108/76 85/68/41 86/8/8 87/29/21
f 88/113/81 89/110/78 90/123/91
f 91/112/80 92/21/15 93/69/42 94/107/75
f 95/117/85 96/114/82 97/122/90
f 98/116/84 99/26/18 100/22/16 101/111/79
f 102/105/73 103/118/86 104/121/89
f 105/104/72 106/72/43 107/27/19 108/115/83
f 20/54/11 17/53/11 18/129/13 19/130/13
f 24/131/17 21/132/17 22/15/14 23/14/14
f 16/64/38 13/63/38 14/62/3 15/61/3
f 4/60/2 1/59/2 2/133/20 3/134/20
f 12/52/10 9/51/10 10/17/5 11/20/5
f 8/66/39 5/65/39 6/19/6 7/18/6
f 32/101/69 36/100/68 38/125/93 33/128/96
f 37/45/31 25/50/36 27/126/94 38/125/93
f 26/79/47 28/82/50 31/127/95 27/126/94
f 30/55/37 34/58/40 33/128/96 31/127/95
f 39/85/53 43/84/52 45/99/67 40/102/70
f 44/46/32 37/45/31 36/100/68 45/99/67
f 35/38/28 41/37/27 40/102/70 32/101/69
f 46/89/57 50/88/56 52/83/51 47/86/54
f 51/47/33 44/46/32 43/84/52 52/83/51
f 42/9/9 48/12/12 47/86/54 39/85/53
f 53/93/61 57/92/60 59/87/55 54/90/58
f 58/48/34 51/47/33 50/88/56 59/87/55
f 49/44/30 55/43/29 54/90/58 46/89/57
f 60/81/49 64/80/48 66/91/59 61/94/62
f 65/49/35 58/48/34 57/92/60 66/91/59
f 56/33/25 62/36/26 61/94/62 53/93/61
f 25/50/36 65/49/35 64/80/48 26/79/47
f 63/1/1 29/4/4 28/82/50 60/81/49
f 74/31/23 77/30/22 80/95/63 75/98/66
f 79/77/46 67/76/45 70/96/64 80/95/63
f 69/103/71 71/106/74 73/97/65 70/96/64
f 72/120/88 76/119/87 75/98/66 73/97/65
f 81/109/77 84/108/76 87/29/21 82/32/24
f 86/8/8 78/7/7 77/30/22 87/29/21
f 76/119/87 83/124/92 82/32/24 74/31/23
f 88/113/81 91/112/80 94/107/75 89/110/78
f 93/69/42 85/68/41 84/108/76 94/107/75
f 83/124/92 90/123/91 89/110/78 81/109/77
f 95/117/85 98/116/84 101/111/79 96/114/82
f 100/22/16 92/21/15 91/112/80 101/111/79
f 90/123/91 97/122/90 96/114/82 88/113/81
f 102/105/73 105/104/72 108/115/83 103/118/86
f 107/27/19 99/26/18 98/116/84 108/115/83
f 97/122/90 104/121/89 103/118/86 95/117/85
f 68/73/44 106/72/43 105/104/72 69/103/71
f 104/121/89 72/120/88 71/106/74 102/105/73
f 62/36/26 2/35/20 1/2/2 63/1/1
f 13/56/38 30/55/37 29/4/4 14/3/3
f 7/39/6 35/38/28 34/58/40 8/57/39
f 9/10/10 42/9/9 41/37/27 10/40/5
f 19/41/13 49/44/30 48/12/12 20/11/11
f 21/34/17 56/33/25 55/43/29 22/42/14
f 15/74/3 68/73/44 67/76/45 16/75/38
f 78/7/7 6/6/6 5/78/39 79/77/46
f 3/28/20 107/27/19 106/72/43 4/71/2
f 85/68/41 12/67/10 11/5/5 86/8/8
f 92/21/15 18/24/13 17/70/11 93/69/42
f 99/26/18 24/25/17 23/23/14 100/22/16
f 21/132/17 24/131/17 3/134/20 2/133/20
